# xmcd
#
# Track frame offsets: 
#        150
#        16417
#        34115
#        52754
#        57931
#        77057
#        92966
#        110975
#        130359
#        149466
#        166802
#        183899
#        197677
#        199822
#        219294
#        239685
#
# Disc length: 3484 seconds
#
# Revision: 2
# Processed by: cddbd v1.5.2PL0 Copyright (c) Steve Scherf et al.
# Submitted via: ExactAudioCopy v0.99pb4
#
DISCID=e40d9a10
DTITLE=Rick Ross - Rise to Power
DYEAR=2007
DGENRE=Rap
TTITLE0=It's On (Rick Ross Feat. Noah and Jiggolo)
TTITLE1=Hold Me Down
TTITLE2=Get That Bread (Rick Ross Feat. Cinque and Big Duke)
TTITLE3=Skit 1
TTITLE4=Street Love (Rick Ross Feat. Next)
TTITLE5=Strapped (Rick Ross Feat. Noah)
TTITLE6=Prove Me Wrong feat. Devin the Dude
TTITLE7=Bird Bath
TTITLE8=B.L.O.W. (Block Life Is Our Way) (Rick Ross Feat. Clipse)
TTITLE9=Realest Niggas (Rick Ross Feat. Gillie Da Kid and Reed Dollarz)
TTITLE10=Simple and Plain
TTITLE11=Dear Lord (Rick Ross Feat. Scarface)
TTITLE12=Skit 2
TTITLE13=Been (Rick Ross Feat. Jiggolo)
TTITLE14=Breathe In, Breathe Out (Rick Ross Feat. Jiggolo)
TTITLE15=737 (Rick Ross Feat. Jiggolo)
EXTD=
EXTT0=
EXTT1=
EXTT2=
EXTT3=
EXTT4=
EXTT5=
EXTT6=
EXTT7=
EXTT8=
EXTT9=
EXTT10=
EXTT11=
EXTT12=
EXTT13=
EXTT14=
EXTT15=
PLAYORDER=
